<?xml version="1.0" encoding="UTF-8" standalone="no"?>
<!-- Created with Inkscape (http://www.inkscape.org/) -->

<svg
   xmlns:dc="http://purl.org/dc/elements/1.1/"
   xmlns:cc="http://creativecommons.org/ns#"
   xmlns:rdf="http://www.w3.org/1999/02/22-rdf-syntax-ns#"
   xmlns:svg="http://www.w3.org/2000/svg"
   xmlns="http://www.w3.org/2000/svg"
   xmlns:sodipodi="http://sodipodi.sourceforge.net/DTD/sodipodi-0.dtd"
   xmlns:inkscape="http://www.inkscape.org/namespaces/inkscape"
   width="43.243103mm"
   height="47.958427mm"
   viewBox="0 0 43.243103 47.958427"
   version="1.1"
   id="svg8"
   inkscape:export-filename="/home/kyle/Desktop/hackthenorth/share.png"
   inkscape:export-xdpi="117.47537"
   inkscape:export-ydpi="117.47537"
   inkscape:version="0.92.4 (unknown)"
   sodipodi:docname="share.svg">
  <defs
     id="defs2" />
  <sodipodi:namedview
     id="base"
     pagecolor="#ffffff"
     bordercolor="#666666"
     borderopacity="1.0"
     inkscape:pageopacity="0.0"
     inkscape:pageshadow="2"
     inkscape:zoom="3.959798"
     inkscape:cx="87.715941"
     inkscape:cy="72.37145"
     inkscape:document-units="mm"
     inkscape:current-layer="layer1"
     showgrid="false"
     fit-margin-top="0"
     fit-margin-left="0"
     fit-margin-right="0"
     fit-margin-bottom="0"
     inkscape:window-width="3840"
     inkscape:window-height="2034"
     inkscape:window-x="0"
     inkscape:window-y="0"
     inkscape:window-maximized="1" />
  <metadata
     id="metadata5">
    <rdf:RDF>
      <cc:Work
         rdf:about="">
        <dc:format>image/svg+xml</dc:format>
        <dc:type
           rdf:resource="http://purl.org/dc/dcmitype/StillImage" />
        <dc:title></dc:title>
      </cc:Work>
    </rdf:RDF>
  </metadata>
  <g
     inkscape:label="Layer 1"
     inkscape:groupmode="layer"
     id="layer1"
     transform="translate(145.43079,-212.34957)">
    <path
       style="fill:#fffffb;fill-opacity:1;stroke-width:0.26458335"
       d="m -111.40638,260.14827 c -1.29867,-0.44576 -2.22926,-1.07294 -3.2547,-2.19357 -1.30341,-1.42439 -1.52297,-1.98294 -1.7346,-4.41276 l -0.17007,-1.95262 -1.71979,-1.01171 c -0.94589,-0.55644 -2.07698,-1.19616 -2.51354,-1.42161 -0.43657,-0.22545 -1.32954,-0.76473 -1.98438,-1.19839 -0.65484,-0.43366 -1.3722,-0.87979 -1.59414,-0.99139 -0.98962,-0.49765 -5.45635,-3.09488 -5.81419,-3.38074 -0.21828,-0.17437 -1.02319,-0.65161 -1.78868,-1.06054 l -1.39181,-0.74351 -0.59257,0.52375 c -1.77986,1.57316 -4.70048,1.90343 -7.07486,0.80003 -1.73503,-0.80629 -2.27379,-1.265 -3.25216,-2.76901 -1.98998,-3.05913 -1.31377,-7.16521 1.5717,-9.54365 2.2808,-1.88003 5.83961,-2.14256 8.30117,-0.61237 l 1.29549,0.80532 2.45805,-1.44864 c 1.35192,-0.79675 2.63664,-1.55809 2.85492,-1.69187 0.21828,-0.13378 1.38819,-0.81345 2.5998,-1.51038 1.21161,-0.69693 2.59588,-1.50526 3.07616,-1.7963 0.48027,-0.29105 1.94796,-1.12172 3.26151,-1.84595 l 2.3883,-1.31677 -0.0111,-1.78032 c -0.021,-3.34861 2.00283,-6.00723 5.3188,-6.98722 3.63305,-1.0737 7.79162,1.3113 8.80295,5.04862 0.56616,2.09223 -0.21877,5.60332 -1.52335,6.8141 -1.98909,1.84605 -3.14136,2.31896 -5.63011,2.31068 -1.66975,-0.006 -3.03354,-0.43737 -4.3056,-1.36328 -0.48557,-0.35344 -0.6585,-0.29137 -2.89596,1.03933 -0.67198,0.39965 -2.14916,1.26242 -3.28262,1.91726 -1.13346,0.65485 -2.60773,1.51309 -3.27615,1.90721 -0.66841,0.39412 -1.63202,0.9299 -2.14134,1.19062 -0.50933,0.26073 -0.98558,0.53725 -1.05834,0.61451 -0.0728,0.0772 -1.02526,0.66563 -2.11666,1.30751 -1.09141,0.64188 -2.02111,1.19088 -2.06602,1.22 -0.0449,0.0291 -0.10443,0.83457 -0.13229,1.78989 l -0.0506,1.73694 1.05833,0.60212 c 0.58209,0.33117 1.36559,0.7828 1.74112,1.00364 0.37553,0.22084 1.68522,0.97324 2.91041,1.67201 1.2252,0.69877 2.70389,1.55935 3.28597,1.9124 0.58209,0.35305 2.01084,1.18509 3.175,1.84897 1.16417,0.66388 2.6366,1.51116 3.27207,1.88283 l 1.15539,0.67577 1.77613,-0.81866 c 3.19333,-1.47191 5.99138,-0.98089 8.37268,1.4693 1.33823,1.37693 1.82066,2.71589 1.79723,4.98807 -0.027,2.61882 -1.18287,4.60694 -3.53928,6.08765 -0.95479,0.59996 -1.55352,0.76296 -3.0427,0.82835 -1.01971,0.0448 -2.15167,-0.0207 -2.51548,-0.14562 z"
       id="path896"
       inkscape:connector-curvature="0" />
  </g>
</svg>
